<?xml version="1.0" ?>
<!-- Uploaded to: SVG Repo, www.svgrepo.com, Generator: SVG Repo Mixer Tools -->
<svg width="800px" height="800px" viewBox="0 0 96 96" version="1.1" xml:space="preserve" xmlns="http://www.w3.org/2000/svg" xmlns:xlink="http://www.w3.org/1999/xlink">
<style type="text/css">
	.st0{display:none;}
	.st1{fill:#FFFFFF;}
	.st2{fill:none;stroke:#000000;stroke-width:2;stroke-linecap:round;stroke-linejoin:round;stroke-miterlimit:10;}
	.st3{fill:#FFF8FA;}
	.st4{stroke:#000000;stroke-width:2;stroke-miterlimit:10;}
	.st5{fill:none;stroke:#000000;stroke-miterlimit:10;}
	.st6{fill:none;stroke:#000000;stroke-width:2;stroke-linecap:round;stroke-miterlimit:10;}
	.st7{fill:#231F20;stroke:#000000;stroke-width:0;stroke-miterlimit:10;}
	.st8{fill:#FF0D5C;}
	.st9{display:inline;}
	.st10{fill:none;stroke:#00D8E9;stroke-width:0.25;stroke-linecap:round;stroke-linejoin:round;stroke-miterlimit:10;}
	.st11{fill:none;stroke:#00D8E9;stroke-width:0.25;stroke-linejoin:round;stroke-miterlimit:10;}
	.st12{fill:none;stroke:#00D8E9;stroke-linecap:round;stroke-linejoin:round;stroke-miterlimit:10;}
	.st13{fill:none;stroke:#00D8E9;stroke-linejoin:round;stroke-miterlimit:10;}
</style>
<g id="banana"/>
<g id="Layer_12"/>
<g id="grape"/>
<g id="assasin"/>
<g id="gold"/>
<g id="mage_ass"/>
<g id="fighter"/>
<g id="SUPPORT"/>
<g id="marksman"/>
<g id="JUNGLE"/>
<g id="TANK"/>
<g class="st0" id="creditcard"/>
<g class="st0" id="CAKE"/>
<g class="st0" id="TOPI"/>
<g class="st0" id="SPATU"/>
<g class="st0" id="SETTING"/>
<g class="st0" id="CART"/>
<g class="st0" id="k3"/>
<g class="st0" id="computer"/>
<g class="st0" id="phone"/>
<g class="st0" id="location"/>
<g id="koper">
<g id="Layer_29"/>
<path d="M71.8,43.5L30.6,21.8c-1.9-1-4.2-0.9-6,0.2c-1.6,1-2.6,2.7-2.6,4.5v41.3c0,1.8,1,3.5,2.6,4.5c1,0.6,2.1,0.9,3.2,0.9   c1,0,2-0.2,2.8-0.7l41.2-21.7c1.3-0.7,2.2-2.1,2.2-3.6C74,45.6,73.2,44.2,71.8,43.5z"/>
</g>
<g class="st0" id="guide">
<g class="st9">
<ellipse class="st10" cx="-10.5" cy="-9.5" rx="12.7" ry="12.7" transform="matrix(0.9985 -5.530002e-02 5.530002e-02 0.9985 0.5093 -0.5952)"/>
<g>
<path class="st11" d="M21-10c0-17.7-14.3-32-32-32c-17.7,0-32,14.3-32,32c0,17.7,14.3,32,32,32C6.7,22,21,7.7,21-10z"/>
<g>
<path class="st10" d="M37.5-10c0,26.2-21.3,47.5-47.5,47.5c-26.2,0-47.5-21.3-47.5-47.5S-36.2-57.5-10-57.5      C16.2-57.5,37.5-36.2,37.5-10z"/>
</g>
<circle class="st10" cx="-10" cy="-10" r="43.5"/>
<circle class="st10" cx="-10" cy="-10" r="39.3"/>
<line class="st10" x1="22.5" x2="-43.5" y1="23.5" y2="-42.5"/>
<line class="st10" x1="-44" x2="23" y1="24" y2="-43"/>
<circle class="st10" cx="-10" cy="-10" r="22.5"/>
</g>
</g>
</g>
<g id="MAGICAL"/>
<g id="phisical"/>
<g id="mango"/>
<g id="orange"/>
</svg>